:FULLY-SPECIFIED
:FORCE-ALL-JOINTS-BE-3DOF
:DEGREES
388
root 9.45848 17.0688 18.1255 6.11354 -0.234906 -5.00056
lfemur -41.2047 2.67285 -15.4222
ltibia 30.1113 -0 0
lfoot -14.8223 9.66521 -0.00083222
ltoes -15.1343 0 0
rfemur 2.38137 5.73179 31.3701
rtibia 14.2852 -0 0
rfoot -15.8736 5.21429 0.00641265
rtoes -16.1491 0 0
lowerback -6.79678 2.43968 1.49062
upperback -0.023134 3.00666 3.35705
thorax 3.68449 1.4939 2.93763
lowerneck -19.3255 -6.22414 -13.1739
upperneck 21.5528 -8.09691 13.1688
head 11.3134 -3.24669 5.79226
lclavicle -1.80397e-14 1.98785e-16 0
lhumerus -50.2022 -11.5397 95.3405
lradius 26.3091 -0 0
lwrist 9.45019 0 0
lhand -13.6084 -22.5148 0.00729893
lfingers 7.12502 0 0
lthumb 12.5065 7.08818 0.00648159
rclavicle -1.80397e-14 1.98785e-16 0
rhumerus -27.3566 16.7708 -83.1052
rradius 43.1136 -0 0
rwrist -21.5179 0 0
rhand -32.1672 -23.3135 -0.000713961
rfingers 7.12502 0 0
rthumb -5.41015 -53.2244 -0.000690246
389
root 9.46801 17.0631 18.2589 6.07482 -0.402197 -5.25586
lfemur -41.3076 2.39869 -14.974
ltibia 28.536 -0 0
lfoot -14.92 9.77361 -0.000739751
ltoes -15.6498 0 0
rfemur 3.58123 5.75463 31.6179
rtibia 12.9862 -0 0
rfoot -15.4096 5.39023 0.0057001
rtoes -15.5079 0 0
lowerback -6.82802 2.5436 1.69503
upperback 0.0467601 3.12233 3.43433
thorax 3.77678 1.55369 2.9191
lowerneck -19.3795 -6.24492 -13.2262
upperneck 21.5278 -8.11226 13.2122
head 11.3218 -3.25118 5.81422
lclavicle -2.38293e-14 -1.45775e-15 0
lhumerus -50.4376 -11.3705 95.3732
lradius 26.3884 -0 0
lwrist 9.58059 0 0
lhand -13.2554 -22.2515 0.00648791
lfingers 7.12502 0 0
lthumb 12.8469 7.33067 0.00576138
rclavicle -2.38293e-14 -1.45775e-15 0
rhumerus -27.0029 16.6135 -83.1202
rradius 42.7574 -0 0
rwrist -21.3426 0 0
rhand -32.1887 -22.89 -0.000634629
rfingers 7.12502 0 0
rthumb -5.43087 -52.8004 -0.000613549
390
root 9.47753 17.0574 18.3924 6.03685 -0.56966 -5.51104
lfemur -41.4126 2.12534 -14.5253
ltibia 26.9606 -0 0
lfoot -15.0178 9.88201 -0.000462343
ltoes -16.1654 0 0
rfemur 4.78121 5.7723 31.8662
rtibia 11.6872 -0 0
rfoot -14.9455 5.56615 0.0035625
rtoes -14.8666 0 0
lowerback -6.85888 2.64764 1.8994
upperback 0.116818 3.23791 3.51176
thorax 3.86905 1.61352 2.90066
lowerneck -19.4336 -6.26576 -13.2785
upperneck 21.5028 -8.1276 13.2556
head 11.3303 -3.25568 5.83618
lclavicle -2.96189e-14 -3.11429e-15 0
lhumerus -50.6728 -11.2013 95.4053
lradius 26.4677 -0 0
lwrist 9.71099 0 0
lhand -12.9024 -21.9883 0.00405488
lfingers 7.12502 0 0
lthumb 13.1872 7.57317 0.00360082
rclavicle -2.96189e-14 -3.11429e-15 0
rhumerus -26.6495 16.4563 -83.1361
rradius 42.4013 -0 0
rwrist -21.1674 0 0
rhand -32.2101 -22.4665 -0.000396638
rfingers 7.12502 0 0
rthumb -5.4516 -52.3765 -0.000383463
391
root 9.48706 17.0517 18.5259 5.99963 -0.73729 -5.76612
lfemur -41.5197 1.85283 -14.0762
ltibia 25.3853 0 0
lfoot -15.1155 9.99041 0
ltoes -16.6809 0 0
rfemur 5.98129 5.7848 32.1148
rtibia 10.3882 0 0
rfoot -14.4814 5.74206 0
rtoes -14.2254 0 0
lowerback -6.88938 2.75178 2.10373
upperback 0.187041 3.35339 3.58934
thorax 3.9613 1.67337 2.88231
lowerneck -19.4876 -6.28664 -13.3307
upperneck 21.4778 -8.14292 13.299
head 11.3387 -3.26018 5.85814
lclavicle -3.54085e-14 -4.77083e-15 0
lhumerus -50.9077 -11.0319 95.4366
lradius 26.547 0 0
lwrist 9.84139 0 0
lhand -12.5494 -21.725 0
lfingers 7.12502 0 0
lthumb 13.5275 7.81564 0
rclavicle -3.54085e-14 -4.77083e-15 0
rhumerus -26.2964 16.2992 -83.153
rradius 42.0452 0 0
rwrist -20.9921 0 0
rhand -32.2316 -22.0431 0
rfingers 7.12502 0 0
rthumb -5.47233 -51.9525 0
